<mxfile host="app.diagrams.net" modified="2020-09-17T10:05:07.952Z" agent="5.0 (Windows NT 10.0; Win64; x64) AppleWebKit/537.36 (KHTML, like Gecko) Chrome/85.0.4183.102 Safari/537.36" etag="X0QwyHsBPouTNMamyo_O" version="13.7.2" type="github">
  <diagram id="L78k47U69HLxivYjufpT" name="Page-1">
    <mxGraphModel dx="1422" dy="832" grid="1" gridSize="10" guides="1" tooltips="1" connect="1" arrows="1" fold="1" page="1" pageScale="1" pageWidth="1169" pageHeight="1654" math="0" shadow="0">
      <root>
        <mxCell id="0" />
        <mxCell id="1" parent="0" />
        <mxCell id="8Qk3gI1zRfMAFnqxJvFZ-7" style="edgeStyle=orthogonalEdgeStyle;rounded=0;orthogonalLoop=1;jettySize=auto;html=1;exitX=1;exitY=0.5;exitDx=0;exitDy=0;entryX=0;entryY=0.5;entryDx=0;entryDy=0;" edge="1" parent="1" source="8Qk3gI1zRfMAFnqxJvFZ-1" target="8Qk3gI1zRfMAFnqxJvFZ-2">
          <mxGeometry relative="1" as="geometry" />
        </mxCell>
        <mxCell id="8Qk3gI1zRfMAFnqxJvFZ-8" style="edgeStyle=orthogonalEdgeStyle;rounded=0;orthogonalLoop=1;jettySize=auto;html=1;exitX=1;exitY=0.5;exitDx=0;exitDy=0;entryX=0;entryY=0.5;entryDx=0;entryDy=0;" edge="1" parent="1" source="8Qk3gI1zRfMAFnqxJvFZ-1" target="8Qk3gI1zRfMAFnqxJvFZ-3">
          <mxGeometry relative="1" as="geometry" />
        </mxCell>
        <mxCell id="8Qk3gI1zRfMAFnqxJvFZ-9" style="edgeStyle=orthogonalEdgeStyle;rounded=0;orthogonalLoop=1;jettySize=auto;html=1;exitX=1;exitY=0.5;exitDx=0;exitDy=0;entryX=0;entryY=0.5;entryDx=0;entryDy=0;" edge="1" parent="1" source="8Qk3gI1zRfMAFnqxJvFZ-1" target="8Qk3gI1zRfMAFnqxJvFZ-4">
          <mxGeometry relative="1" as="geometry" />
        </mxCell>
        <mxCell id="8Qk3gI1zRfMAFnqxJvFZ-20" style="edgeStyle=orthogonalEdgeStyle;rounded=0;orthogonalLoop=1;jettySize=auto;html=1;exitX=1;exitY=0.5;exitDx=0;exitDy=0;entryX=0;entryY=0.5;entryDx=0;entryDy=0;entryPerimeter=0;" edge="1" parent="1" source="8Qk3gI1zRfMAFnqxJvFZ-1" target="8Qk3gI1zRfMAFnqxJvFZ-19">
          <mxGeometry relative="1" as="geometry" />
        </mxCell>
        <mxCell id="8Qk3gI1zRfMAFnqxJvFZ-1" value="Projet Groupe 20" style="rounded=1;whiteSpace=wrap;html=1;fillColor=#d5e8d4;strokeColor=#82b366;" vertex="1" parent="1">
          <mxGeometry x="50" y="70" width="120" height="40" as="geometry" />
        </mxCell>
        <mxCell id="8Qk3gI1zRfMAFnqxJvFZ-2" value="BDD" style="rounded=1;whiteSpace=wrap;html=1;fillColor=#d5e8d4;strokeColor=#82b366;" vertex="1" parent="1">
          <mxGeometry x="240" y="70" width="120" height="40" as="geometry" />
        </mxCell>
        <mxCell id="8Qk3gI1zRfMAFnqxJvFZ-21" style="edgeStyle=orthogonalEdgeStyle;rounded=0;orthogonalLoop=1;jettySize=auto;html=1;exitX=1;exitY=0.5;exitDx=0;exitDy=0;entryX=0;entryY=0.5;entryDx=0;entryDy=0;" edge="1" parent="1" source="8Qk3gI1zRfMAFnqxJvFZ-3" target="8Qk3gI1zRfMAFnqxJvFZ-12">
          <mxGeometry relative="1" as="geometry" />
        </mxCell>
        <mxCell id="8Qk3gI1zRfMAFnqxJvFZ-22" style="edgeStyle=orthogonalEdgeStyle;rounded=0;orthogonalLoop=1;jettySize=auto;html=1;exitX=1;exitY=0.5;exitDx=0;exitDy=0;entryX=0;entryY=0.5;entryDx=0;entryDy=0;" edge="1" parent="1" source="8Qk3gI1zRfMAFnqxJvFZ-3" target="8Qk3gI1zRfMAFnqxJvFZ-13">
          <mxGeometry relative="1" as="geometry" />
        </mxCell>
        <mxCell id="8Qk3gI1zRfMAFnqxJvFZ-23" style="edgeStyle=orthogonalEdgeStyle;rounded=0;orthogonalLoop=1;jettySize=auto;html=1;exitX=1;exitY=0.5;exitDx=0;exitDy=0;entryX=0;entryY=0.5;entryDx=0;entryDy=0;" edge="1" parent="1" source="8Qk3gI1zRfMAFnqxJvFZ-3" target="8Qk3gI1zRfMAFnqxJvFZ-15">
          <mxGeometry relative="1" as="geometry" />
        </mxCell>
        <mxCell id="8Qk3gI1zRfMAFnqxJvFZ-24" style="edgeStyle=orthogonalEdgeStyle;rounded=0;orthogonalLoop=1;jettySize=auto;html=1;exitX=1;exitY=0.5;exitDx=0;exitDy=0;entryX=0;entryY=0.5;entryDx=0;entryDy=0;" edge="1" parent="1" source="8Qk3gI1zRfMAFnqxJvFZ-3" target="8Qk3gI1zRfMAFnqxJvFZ-16">
          <mxGeometry relative="1" as="geometry" />
        </mxCell>
        <mxCell id="8Qk3gI1zRfMAFnqxJvFZ-25" style="edgeStyle=orthogonalEdgeStyle;rounded=0;orthogonalLoop=1;jettySize=auto;html=1;exitX=1;exitY=0.5;exitDx=0;exitDy=0;entryX=0;entryY=0.5;entryDx=0;entryDy=0;entryPerimeter=0;" edge="1" parent="1" source="8Qk3gI1zRfMAFnqxJvFZ-3" target="8Qk3gI1zRfMAFnqxJvFZ-17">
          <mxGeometry relative="1" as="geometry" />
        </mxCell>
        <mxCell id="8Qk3gI1zRfMAFnqxJvFZ-26" style="edgeStyle=orthogonalEdgeStyle;rounded=0;orthogonalLoop=1;jettySize=auto;html=1;exitX=1;exitY=0.5;exitDx=0;exitDy=0;entryX=0;entryY=0.5;entryDx=0;entryDy=0;entryPerimeter=0;" edge="1" parent="1" source="8Qk3gI1zRfMAFnqxJvFZ-3" target="8Qk3gI1zRfMAFnqxJvFZ-18">
          <mxGeometry relative="1" as="geometry" />
        </mxCell>
        <mxCell id="8Qk3gI1zRfMAFnqxJvFZ-28" style="edgeStyle=orthogonalEdgeStyle;rounded=0;orthogonalLoop=1;jettySize=auto;html=1;exitX=1;exitY=0.5;exitDx=0;exitDy=0;entryX=0;entryY=0.5;entryDx=0;entryDy=0;" edge="1" parent="1" source="8Qk3gI1zRfMAFnqxJvFZ-3" target="8Qk3gI1zRfMAFnqxJvFZ-14">
          <mxGeometry relative="1" as="geometry" />
        </mxCell>
        <mxCell id="8Qk3gI1zRfMAFnqxJvFZ-3" value="App" style="rounded=1;whiteSpace=wrap;html=1;fillColor=#d5e8d4;strokeColor=#82b366;" vertex="1" parent="1">
          <mxGeometry x="240" y="180" width="120" height="40" as="geometry" />
        </mxCell>
        <mxCell id="8Qk3gI1zRfMAFnqxJvFZ-10" style="edgeStyle=orthogonalEdgeStyle;rounded=0;orthogonalLoop=1;jettySize=auto;html=1;exitX=1;exitY=0.5;exitDx=0;exitDy=0;entryX=0;entryY=0.5;entryDx=0;entryDy=0;" edge="1" parent="1" source="8Qk3gI1zRfMAFnqxJvFZ-4" target="8Qk3gI1zRfMAFnqxJvFZ-5">
          <mxGeometry relative="1" as="geometry" />
        </mxCell>
        <mxCell id="8Qk3gI1zRfMAFnqxJvFZ-11" style="edgeStyle=orthogonalEdgeStyle;rounded=0;orthogonalLoop=1;jettySize=auto;html=1;exitX=1;exitY=0.5;exitDx=0;exitDy=0;entryX=0;entryY=0.5;entryDx=0;entryDy=0;" edge="1" parent="1" source="8Qk3gI1zRfMAFnqxJvFZ-4" target="8Qk3gI1zRfMAFnqxJvFZ-6">
          <mxGeometry relative="1" as="geometry" />
        </mxCell>
        <mxCell id="8Qk3gI1zRfMAFnqxJvFZ-4" value="Livrables" style="rounded=1;whiteSpace=wrap;html=1;fillColor=#d5e8d4;strokeColor=#82b366;" vertex="1" parent="1">
          <mxGeometry x="240" y="657" width="120" height="40" as="geometry" />
        </mxCell>
        <mxCell id="8Qk3gI1zRfMAFnqxJvFZ-43" style="edgeStyle=orthogonalEdgeStyle;rounded=0;orthogonalLoop=1;jettySize=auto;html=1;exitX=1;exitY=0.5;exitDx=0;exitDy=0;entryX=0;entryY=0.5;entryDx=0;entryDy=0;entryPerimeter=0;" edge="1" parent="1" source="8Qk3gI1zRfMAFnqxJvFZ-5" target="8Qk3gI1zRfMAFnqxJvFZ-42">
          <mxGeometry relative="1" as="geometry" />
        </mxCell>
        <mxCell id="8Qk3gI1zRfMAFnqxJvFZ-5" value="Diagrammes" style="rounded=1;whiteSpace=wrap;html=1;fillColor=#d5e8d4;strokeColor=#82b366;" vertex="1" parent="1">
          <mxGeometry x="430" y="657" width="120" height="40" as="geometry" />
        </mxCell>
        <mxCell id="8Qk3gI1zRfMAFnqxJvFZ-45" style="edgeStyle=orthogonalEdgeStyle;rounded=0;orthogonalLoop=1;jettySize=auto;html=1;exitX=1;exitY=0.5;exitDx=0;exitDy=0;entryX=0;entryY=0.5;entryDx=0;entryDy=0;entryPerimeter=0;" edge="1" parent="1" source="8Qk3gI1zRfMAFnqxJvFZ-6" target="8Qk3gI1zRfMAFnqxJvFZ-44">
          <mxGeometry relative="1" as="geometry" />
        </mxCell>
        <mxCell id="8Qk3gI1zRfMAFnqxJvFZ-6" value="Documentation" style="rounded=1;whiteSpace=wrap;html=1;fillColor=#d5e8d4;strokeColor=#82b366;" vertex="1" parent="1">
          <mxGeometry x="430" y="737" width="120" height="40" as="geometry" />
        </mxCell>
        <mxCell id="8Qk3gI1zRfMAFnqxJvFZ-12" value="FonctionnalitÃ©s" style="rounded=1;whiteSpace=wrap;html=1;fillColor=#d5e8d4;strokeColor=#82b366;" vertex="1" parent="1">
          <mxGeometry x="430" y="130" width="120" height="40" as="geometry" />
        </mxCell>
        <mxCell id="8Qk3gI1zRfMAFnqxJvFZ-36" style="edgeStyle=orthogonalEdgeStyle;rounded=0;orthogonalLoop=1;jettySize=auto;html=1;exitX=1;exitY=0.5;exitDx=0;exitDy=0;" edge="1" parent="1" source="8Qk3gI1zRfMAFnqxJvFZ-13">
          <mxGeometry relative="1" as="geometry">
            <mxPoint x="620" y="200" as="targetPoint" />
          </mxGeometry>
        </mxCell>
        <mxCell id="8Qk3gI1zRfMAFnqxJvFZ-38" style="edgeStyle=orthogonalEdgeStyle;rounded=0;orthogonalLoop=1;jettySize=auto;html=1;exitX=1;exitY=0.5;exitDx=0;exitDy=0;entryX=0;entryY=0.5;entryDx=0;entryDy=0;entryPerimeter=0;" edge="1" parent="1" source="8Qk3gI1zRfMAFnqxJvFZ-13" target="8Qk3gI1zRfMAFnqxJvFZ-30">
          <mxGeometry relative="1" as="geometry" />
        </mxCell>
        <mxCell id="8Qk3gI1zRfMAFnqxJvFZ-41" style="edgeStyle=orthogonalEdgeStyle;rounded=0;orthogonalLoop=1;jettySize=auto;html=1;exitX=1;exitY=0.5;exitDx=0;exitDy=0;entryX=0;entryY=0.5;entryDx=0;entryDy=0;entryPerimeter=0;" edge="1" parent="1" source="8Qk3gI1zRfMAFnqxJvFZ-13" target="8Qk3gI1zRfMAFnqxJvFZ-40">
          <mxGeometry relative="1" as="geometry" />
        </mxCell>
        <mxCell id="8Qk3gI1zRfMAFnqxJvFZ-13" value="Classes" style="rounded=1;whiteSpace=wrap;html=1;fillColor=#d5e8d4;strokeColor=#82b366;" vertex="1" parent="1">
          <mxGeometry x="430" y="200" width="120" height="40" as="geometry" />
        </mxCell>
        <mxCell id="8Qk3gI1zRfMAFnqxJvFZ-14" value="Tests" style="rounded=1;whiteSpace=wrap;html=1;fillColor=#d5e8d4;strokeColor=#82b366;" vertex="1" parent="1">
          <mxGeometry x="430" y="270" width="120" height="40" as="geometry" />
        </mxCell>
        <mxCell id="8Qk3gI1zRfMAFnqxJvFZ-15" value="DAO" style="rounded=1;whiteSpace=wrap;html=1;fillColor=#d5e8d4;strokeColor=#82b366;" vertex="1" parent="1">
          <mxGeometry x="430" y="340" width="120" height="40" as="geometry" />
        </mxCell>
        <mxCell id="8Qk3gI1zRfMAFnqxJvFZ-34" style="edgeStyle=orthogonalEdgeStyle;rounded=0;orthogonalLoop=1;jettySize=auto;html=1;exitX=1;exitY=0.5;exitDx=0;exitDy=0;entryX=0;entryY=0.5;entryDx=0;entryDy=0;entryPerimeter=0;" edge="1" parent="1" source="8Qk3gI1zRfMAFnqxJvFZ-16" target="8Qk3gI1zRfMAFnqxJvFZ-31">
          <mxGeometry relative="1" as="geometry" />
        </mxCell>
        <mxCell id="8Qk3gI1zRfMAFnqxJvFZ-35" style="edgeStyle=orthogonalEdgeStyle;rounded=0;orthogonalLoop=1;jettySize=auto;html=1;exitX=1;exitY=0.5;exitDx=0;exitDy=0;entryX=0;entryY=0.5;entryDx=0;entryDy=0;entryPerimeter=0;" edge="1" parent="1" source="8Qk3gI1zRfMAFnqxJvFZ-16" target="8Qk3gI1zRfMAFnqxJvFZ-33">
          <mxGeometry relative="1" as="geometry" />
        </mxCell>
        <mxCell id="8Qk3gI1zRfMAFnqxJvFZ-16" value="Menus (Interface)" style="rounded=1;whiteSpace=wrap;html=1;fillColor=#d5e8d4;strokeColor=#82b366;" vertex="1" parent="1">
          <mxGeometry x="430" y="410" width="120" height="40" as="geometry" />
        </mxCell>
        <mxCell id="8Qk3gI1zRfMAFnqxJvFZ-17" value="main.py" style="shape=note;whiteSpace=wrap;html=1;backgroundOutline=1;darkOpacity=0.05;size=19;fillColor=#d5e8d4;strokeColor=#82b366;" vertex="1" parent="1">
          <mxGeometry x="430" y="480" width="120" height="40" as="geometry" />
        </mxCell>
        <mxCell id="8Qk3gI1zRfMAFnqxJvFZ-18" value="README.md" style="shape=note;whiteSpace=wrap;html=1;backgroundOutline=1;darkOpacity=0.05;size=17;fillColor=#f8cecc;strokeColor=#b85450;" vertex="1" parent="1">
          <mxGeometry x="430" y="550" width="120" height="40" as="geometry" />
        </mxCell>
        <mxCell id="8Qk3gI1zRfMAFnqxJvFZ-19" value="LICENCE" style="shape=note;whiteSpace=wrap;html=1;backgroundOutline=1;darkOpacity=0.05;size=17;fillColor=#f8cecc;strokeColor=#b85450;" vertex="1" parent="1">
          <mxGeometry x="240" y="787" width="120" height="40" as="geometry" />
        </mxCell>
        <mxCell id="8Qk3gI1zRfMAFnqxJvFZ-30" value="Test.py" style="shape=note;whiteSpace=wrap;html=1;backgroundOutline=1;darkOpacity=0.05;size=19;fillColor=#fff2cc;strokeColor=#d6b656;" vertex="1" parent="1">
          <mxGeometry x="620" y="290" width="120" height="40" as="geometry" />
        </mxCell>
        <mxCell id="8Qk3gI1zRfMAFnqxJvFZ-31" value="menu_interface.py" style="shape=note;whiteSpace=wrap;html=1;backgroundOutline=1;darkOpacity=0.05;size=19;fillColor=#fff2cc;strokeColor=#d6b656;" vertex="1" parent="1">
          <mxGeometry x="620" y="410" width="150" height="40" as="geometry" />
        </mxCell>
        <mxCell id="8Qk3gI1zRfMAFnqxJvFZ-33" value="menu_data.py" style="shape=note;whiteSpace=wrap;html=1;backgroundOutline=1;darkOpacity=0.05;size=19;fillColor=#fff2cc;strokeColor=#d6b656;" vertex="1" parent="1">
          <mxGeometry x="620" y="470" width="150" height="40" as="geometry" />
        </mxCell>
        <mxCell id="8Qk3gI1zRfMAFnqxJvFZ-39" value="Users.py" style="shape=note;whiteSpace=wrap;html=1;backgroundOutline=1;darkOpacity=0.05;size=19;fillColor=#fff2cc;strokeColor=#d6b656;" vertex="1" parent="1">
          <mxGeometry x="620" y="175" width="120" height="40" as="geometry" />
        </mxCell>
        <mxCell id="8Qk3gI1zRfMAFnqxJvFZ-40" value="Individu.py" style="shape=note;whiteSpace=wrap;html=1;backgroundOutline=1;darkOpacity=0.05;size=19;fillColor=#fff2cc;strokeColor=#d6b656;" vertex="1" parent="1">
          <mxGeometry x="620" y="225" width="120" height="40" as="geometry" />
        </mxCell>
        <mxCell id="8Qk3gI1zRfMAFnqxJvFZ-42" value="Classes.drawio" style="shape=note;whiteSpace=wrap;html=1;backgroundOutline=1;darkOpacity=0.05;size=19;fillColor=#fff2cc;strokeColor=#d6b656;" vertex="1" parent="1">
          <mxGeometry x="620" y="657" width="150" height="40" as="geometry" />
        </mxCell>
        <mxCell id="8Qk3gI1zRfMAFnqxJvFZ-44" value="Users.html" style="shape=note;whiteSpace=wrap;html=1;backgroundOutline=1;darkOpacity=0.05;size=19;fillColor=#fff2cc;strokeColor=#d6b656;" vertex="1" parent="1">
          <mxGeometry x="620" y="737" width="150" height="40" as="geometry" />
        </mxCell>
      </root>
    </mxGraphModel>
  </diagram>
</mxfile>
